<svg width="33" height="32" viewBox="0 0 33 32" fill="none" xmlns="http://www.w3.org/2000/svg">
<path d="M19.8242 20.0722L19.9557 20.138L20.0577 20.0321C20.6879 19.3776 21.5318 18.9705 22.4363 18.8847C23.3408 18.799 24.2461 19.0401 24.9881 19.5645C25.7301 20.0888 26.2597 20.8617 26.4808 21.7429C26.7019 22.6242 26.6 23.5555 26.1935 24.368C25.7869 25.1806 25.1027 25.8206 24.2649 26.172C23.427 26.5234 22.491 26.563 21.6264 26.2836C20.7619 26.0042 20.0261 25.4243 19.5524 24.6489C19.0787 23.8736 18.8985 22.9542 19.0444 22.0575L19.068 21.9124L18.9366 21.8465L12.4393 18.5892L12.3074 18.5231L12.2052 18.6296C11.6805 19.1773 11.0039 19.5554 10.2624 19.7153C9.52097 19.8752 8.74864 19.8095 8.04483 19.5267C7.34102 19.244 6.73792 18.7571 6.31317 18.1287C5.88841 17.5003 5.66143 16.7592 5.66143 16.0007C5.66143 15.2422 5.88841 14.501 6.31317 13.8727C6.73792 13.2443 7.34102 12.7573 8.04483 12.4746C8.74864 12.1918 9.52097 12.1262 10.2624 12.286C11.0039 12.4459 11.6805 12.824 12.2052 13.3717L12.3074 13.4783L12.4393 13.4121L18.9366 10.1548L19.068 10.0889L19.0444 9.94388C18.8985 9.0471 19.0787 8.12772 19.5524 7.3524C20.0261 6.57708 20.7619 5.99715 21.6264 5.71773C22.491 5.43831 23.427 5.4779 24.2649 5.82933C25.1027 6.18075 25.7869 6.82075 26.1935 7.6333C26.6 8.44585 26.7019 9.37717 26.4808 10.2584C26.2597 11.1397 25.7301 11.9125 24.9881 12.4369C24.2461 12.9612 23.3408 13.2024 22.4363 13.1166C21.5318 13.0308 20.6879 12.6238 20.0577 11.9693L19.9557 11.8634L19.8242 11.9291L13.3216 15.1798L13.1902 15.2455L13.2135 15.3905C13.2786 15.7942 13.2786 16.2058 13.2135 16.6095L13.1902 16.7545L13.3215 16.8202L19.8242 20.0722ZM22.795 10.8667C23.2017 10.8667 23.5917 10.7051 23.8792 10.4176C24.1668 10.13 24.3283 9.74 24.3283 9.33334C24.3283 8.92667 24.1668 8.53666 23.8792 8.24911C23.5917 7.96155 23.2017 7.8 22.795 7.8C22.3883 7.8 21.9983 7.96155 21.7108 8.24911C21.4232 8.53666 21.2617 8.92667 21.2617 9.33334C21.2617 9.74 21.4232 10.13 21.7108 10.4176C21.9983 10.7051 22.3883 10.8667 22.795 10.8667ZM22.795 24.2C23.2017 24.2 23.5917 24.0385 23.8792 23.7509C24.1668 23.4633 24.3283 23.0733 24.3283 22.6667C24.3283 22.26 24.1668 21.87 23.8792 21.5824C23.5917 21.2949 23.2017 21.1333 22.795 21.1333C22.3883 21.1333 21.9983 21.2949 21.7108 21.5824C21.4232 21.87 21.2617 22.26 21.2617 22.6667C21.2617 23.0733 21.4232 23.4633 21.7108 23.7509C21.9983 24.0385 22.3883 24.2 22.795 24.2ZM9.46165 17.5333C9.86832 17.5333 10.2583 17.3718 10.5459 17.0842C10.8334 16.7967 10.995 16.4067 10.995 16C10.995 15.5933 10.8334 15.2033 10.5459 14.9158C10.2583 14.6282 9.86832 14.4667 9.46165 14.4667C9.05499 14.4667 8.66498 14.6282 8.37742 14.9158C8.08987 15.2033 7.92832 15.5933 7.92832 16C7.92832 16.4067 8.08987 16.7967 8.37742 17.0842C8.66498 17.3718 9.05499 17.5333 9.46165 17.5333Z" fill="#0A84FF" stroke="white" stroke-width="0.4"/>
</svg>
