<svg width="28" height="28" viewBox="0 0 28 28" fill="none" xmlns="http://www.w3.org/2000/svg">
<path d="M27.383 0.621143C27.0866 0.324652 26.7089 0.122702 26.2978 0.0408244C25.8866 -0.0410535 25.4604 0.000817299 25.073 0.161143L1.43302 9.51114C0.99201 9.68454 0.616664 9.99218 0.360051 10.3906C0.103437 10.7889 -0.0214598 11.2579 0.00301819 11.7311C0.0262382 12.1725 0.188775 12.5951 0.467274 12.9383C0.745773 13.2815 1.12589 13.5276 1.55302 13.6411L11.673 16.4011L14.363 26.4511C14.4766 26.8783 14.7227 27.2584 15.0658 27.5369C15.409 27.8154 15.8317 27.9779 16.273 28.0011H16.403C16.8547 28.0001 17.2955 27.8631 17.6683 27.6081C18.041 27.353 18.3284 26.9917 18.493 26.5711L27.843 2.93114C28.006 2.54424 28.0494 2.11735 27.9674 1.70558C27.8854 1.29382 27.6818 0.916081 27.383 0.621143ZM16.633 25.8311C16.563 25.9911 16.443 26.0111 16.393 26.0011C16.343 25.9911 16.303 26.0011 16.293 25.9311L13.603 15.9311C13.603 15.9311 13.603 15.9311 13.603 15.8811L15.733 13.7611C15.9213 13.5728 16.0271 13.3174 16.0271 13.0511C16.0271 12.7848 15.9213 12.5294 15.733 12.3411C15.5447 12.1528 15.2893 12.0471 15.023 12.0471C14.7567 12.0471 14.5013 12.1528 14.313 12.3411L12.193 14.4711H12.143L2.14302 11.7811C2.14302 11.7811 2.07302 11.7811 2.07302 11.6811C2.07235 11.6283 2.08845 11.5766 2.11899 11.5335C2.14953 11.4904 2.19295 11.458 2.24302 11.4411L25.813 2.00114H25.893C25.9097 1.99149 25.9287 1.98641 25.948 1.98641C25.9673 1.98641 25.9863 1.99149 26.003 2.00114C26.003 2.00114 26.003 2.09114 26.003 2.16114L16.633 25.8311Z" fill="#888888"/>
</svg>
